# xmcd
#
# Track frame offsets: 
#        150
#        14592
#        30375
#        45880
#        60662
#        76672
#        87970
#        104802
#
# Disc length: 1621 seconds
#
# Revision: 2
# Processed by: cddbd v1.4PL0 Copyright (c) Steve Scherf et al.
# Submitted via: ExactAudioCopy v0.90b2
#
DISCID=55065308
DTITLE=The Judds - Wynonna and Naomi
DYEAR=1900
DGENRE=Country
TTITLE0=Had A Dream (For The Heart)
TTITLE1=John Deere Tractor
TTITLE2=Isn't He A Strange One
TTITLE3=Mama He's Crazy
TTITLE4=Change Of Heart
TTITLE5=Blue Nun Cafe
TTITLE6=Cry Myself To Sleep
TTITLE7=Dream Chaser
EXTD=
EXTT0=
EXTT1=
EXTT2=
EXTT3=
EXTT4=
EXTT5=
EXTT6=
EXTT7=
PLAYORDER=
